<svg t="1692170344259" class="icon" viewBox="0 0 1024 1024" version="1.1" xmlns="http://www.w3.org/2000/svg" p-id="5378" data-spm-anchor-id="a313x.search_index.0.i0.76a23a81KTz8Ec" width="64" height="64"><path d="M175.95 210.96c13.35-11.58 33.56-10.14 45.14 3.22l282.1 331.38c4 4.61 11.17 4.6 15.14-0.04l284.48-331.39c11.51-13.41 31.71-14.95 45.12-3.44 13.41 11.51 14.95 31.71 3.44 45.12L526.12 634.7c-7.96 9.27-22.29 9.3-30.29 0.07L172.73 256.1c-11.57-13.35-10.13-33.56 3.22-45.14z" p-id="5379" fill="#3274f5" data-spm-anchor-id="a313x.search_index.0.i5.76a23a81KTz8Ec" class="selected"></path><path d="M175.95 430.31c13.35-11.58 33.56-10.14 45.14 3.22l282.1 331.38c4 4.61 11.17 4.6 15.14-0.04l284.48-331.39c11.51-13.41 31.71-14.95 45.12-3.44 13.41 11.51 14.95 31.71 3.44 45.12L526.12 854.05c-7.96 9.27-22.29 9.3-30.29 0.07l-323.1-378.68c-11.57-13.34-10.13-33.55 3.22-45.13z" p-id="5380" fill="#3274f5"></path></svg>